<svg width="24" height="24" viewBox="0 0 24 24" fill="none" xmlns="http://www.w3.org/2000/svg">
<path d="M17.9999 10.1634C17.9992 10.325 17.966 10.4848 17.9021 10.6332C17.8382 10.7816 17.745 10.9156 17.628 11.0271L12.83 15.6571C12.6058 15.8769 12.3044 16 11.9904 16C11.6764 16 11.375 15.8769 11.1507 15.6571L6.35276 10.8591C6.24092 10.7473 6.15221 10.6145 6.09168 10.4684C6.03115 10.3223 6 10.1657 6 10.0075C6 9.84933 6.03115 9.69272 6.09168 9.54659C6.15221 9.40047 6.24092 9.26769 6.35276 9.15586C6.4646 9.04402 6.59737 8.9553 6.7435 8.89477C6.88962 8.83425 7.04624 8.80309 7.2044 8.80309C7.36257 8.80309 7.51918 8.83425 7.66531 8.89477C7.81143 8.9553 7.9442 9.04402 8.05604 9.15586L12.0024 13.1142L15.9607 9.29979C16.1855 9.07639 16.4895 8.95099 16.8064 8.95099C17.1232 8.95099 17.4273 9.07639 17.652 9.29979C17.7646 9.4133 17.8534 9.54817 17.9131 9.69648C17.9729 9.8448 18.0024 10.0036 17.9999 10.1634Z" fill="#3C3BAA"/>
</svg>
